<svg width="96" height="96" xmlns="http://www.w3.org/2000/svg" xmlns:xlink="http://www.w3.org/1999/xlink" xml:space="preserve" overflow="hidden"><g transform="translate(-155 -129)"><path d="M203 173C198 173 194 169 194 164 194 159 198 155 203 155 208 155 212 159 212 164 212 169 208 173 203 173ZM203 143C196.1 143 189.6 146.4 185.7 152.2 181.8 157.9 181 165.2 183.5 171.7L193 192.7 201.2 209.9C201.5 210.6 202.2 211 203 211 203.8 211 204.5 210.6 204.8 209.9L213 192.7 222.5 171.7C225 165.2 224.2 157.9 220.3 152.2 216.4 146.4 209.9 143 203 143Z" fill="#71BCFF"/></g></svg>