<svg width="96" height="96" xmlns="http://www.w3.org/2000/svg" xmlns:xlink="http://www.w3.org/1999/xlink" xml:space="preserve" overflow="hidden"><g transform="matrix(1 0 0 1 0 -321)"><path d="M23 341 34 341 34 347 62 347 62 341 73 341 73 403 23 403 23 341ZM48.1 333C49.7 333 51 334.4 51 336 51 337.7 49.7 339 48 339 46.3 339 45 337.7 45 336 45 334.3 46.3 333 48.1 333ZM17 339 17 405C17 407.2 18.8 409 21 409L75 409C77.2 409 79 407.2 79 405L79 339C79 336.8 77.2 335 75 335L58 335 58 333C58 330.8 56.2 329 54 329L42 329C39.8 329 38 330.8 38 333L38 335 21 335C18.8 335 17 336.8 17 339Z" fill="#E0144C"/><path d="M57.9 381 54.9 383.9 57.1 386.1 60 383.1 62.9 386.1 65.1 383.9 62.1 381 65.1 378.1 62.9 375.9 60 378.9 57.1 375.9 54.9 378.1Z" fill="#E0144C"/><path d="M54.9 390.1 57.9 393 54.9 395.9 57.1 398.1 60 395.1 62.9 398.1 65.1 395.9 62.1 393 65.1 390.1 62.9 387.9 60 390.9 57.1 387.9Z" fill="#E0144C"/><path d="M29 379 46 379 46 383 29 383Z" fill="#E0144C"/><path d="M29 391 46 391 46 395 29 395Z" fill="#E0144C"/><path d="M29 355 46 355 46 359 29 359Z" fill="#E0144C"/><path d="M29 367 46 367 46 371 29 371Z" fill="#E0144C"/><path d="M52.9 356.8 55 354.7 57.6 357.3 64.2 350.7 66.3 352.8 57.6 361.5Z" fill="#E0144C"/><path d="M52.9 368.8 55 366.7 57.6 369.3 64.2 362.7 66.3 364.8 57.6 373.5Z" fill="#E0144C"/></g></svg>