<svg width="96" height="96" xmlns="http://www.w3.org/2000/svg" xmlns:xlink="http://www.w3.org/1999/xlink" xml:space="preserve" overflow="hidden"><g transform="matrix(1 0 0 1 0 -33)"><path d="M85.5 108.6 73 96.1C71.3 94.4 69 93.8 66.8 94.2L62.4 89.8C66.3 84.8 68.6 78.4 68.6 71.6 68.6 55.1 55.1 41.6 38.6 41.6 22.1 41.6 8.6 55.1 8.6 71.6 8.6 88.1 22.1 101.6 38.6 101.6 45.4 101.6 51.7 99.3 56.8 95.4L61.2 99.8C60.8 102 61.4 104.3 63.1 106L75.6 118.5C77 119.9 78.8 120.6 80.6 120.6 82.4 120.6 84.2 119.9 85.6 118.5 88.2 115.7 88.2 111.3 85.5 108.6ZM38.5 95.5C25.3 95.5 14.5 84.7 14.5 71.5 14.5 58.3 25.3 47.5 38.5 47.5 51.7 47.5 62.5 58.3 62.5 71.5 62.5 84.7 51.7 95.5 38.5 95.5Z" fill="#E0144C"/></g></svg>