<svg width="96" height="96" xmlns="http://www.w3.org/2000/svg" xmlns:xlink="http://www.w3.org/1999/xlink" xml:space="preserve" overflow="hidden"><g transform="translate(-155 -321)"><path d="M178 341 189 341 189 347 217 347 217 341 228 341 228 403 178 403 178 341ZM203.1 333C204.7 333 206 334.4 206 336 206 337.7 204.7 339 203 339 201.3 339 200 337.7 200 336 200 334.3 201.3 333 203.1 333ZM172 339 172 405C172 407.2 173.8 409 176 409L230 409C232.2 409 234 407.2 234 405L234 339C234 336.8 232.2 335 230 335L213 335 213 333C213 330.8 211.2 329 209 329L197 329C194.8 329 193 330.8 193 333L193 335 176 335C173.8 335 172 336.8 172 339Z" fill="#71BCFF"/><path d="M212.9 381 209.9 383.9 212.1 386.1 215 383.1 217.9 386.1 220.1 383.9 217.1 381 220.1 378.1 217.9 375.9 215 378.9 212.1 375.9 209.9 378.1Z" fill="#71BCFF"/><path d="M209.9 390.1 212.9 393 209.9 395.9 212.1 398.1 215 395.1 217.9 398.1 220.1 395.9 217.1 393 220.1 390.1 217.9 387.9 215 390.9 212.1 387.9Z" fill="#71BCFF"/><path d="M184 379 201 379 201 383 184 383Z" fill="#71BCFF"/><path d="M184 391 201 391 201 395 184 395Z" fill="#71BCFF"/><path d="M184 355 201 355 201 359 184 359Z" fill="#71BCFF"/><path d="M184 367 201 367 201 371 184 371Z" fill="#71BCFF"/><path d="M207.9 356.8 210 354.7 212.6 357.3 219.2 350.7 221.3 352.8 212.6 361.5Z" fill="#71BCFF"/><path d="M207.9 368.8 210 366.7 212.6 369.3 219.2 362.7 221.3 364.8 212.6 373.5Z" fill="#71BCFF"/></g></svg>