<svg width="96" height="96" xmlns="http://www.w3.org/2000/svg" xmlns:xlink="http://www.w3.org/1999/xlink" xml:space="preserve" overflow="hidden"><g transform="matrix(1 0 0 1 0 -129)"><path d="M48 173C43 173 39 169 39 164 39 159 43 155 48 155 53 155 57 159 57 164 57 169 53 173 48 173ZM48 143C41.1 143 34.6 146.4 30.7 152.2 26.8 157.9 26 165.2 28.5 171.7L38 192.7 46.2 209.9C46.5 210.6 47.2 211 48 211 48.8 211 49.5 210.6 49.8 209.9L58 192.7 67.5 171.7C70 165.2 69.2 157.9 65.3 152.2 61.4 146.4 54.9 143 48 143Z" fill="#E0144C"/></g></svg>