<svg width="96" height="96" xmlns="http://www.w3.org/2000/svg" xmlns:xlink="http://www.w3.org/1999/xlink" xml:space="preserve" overflow="hidden"><g transform="translate(-155 -33)"><path d="M240.5 108.6 228 96.1C226.3 94.4 224 93.8 221.8 94.2L217.4 89.8C221.3 84.8 223.6 78.4 223.6 71.6 223.6 55.1 210.1 41.6 193.6 41.6 177.1 41.6 163.6 55.1 163.6 71.6 163.6 88.1 177.1 101.6 193.6 101.6 200.4 101.6 206.7 99.3 211.8 95.4L216.2 99.8C215.8 102 216.4 104.3 218.1 106L230.6 118.5C232 119.9 233.8 120.6 235.6 120.6 237.4 120.6 239.2 119.9 240.6 118.5 243.2 115.7 243.2 111.3 240.5 108.6ZM193.5 95.5C180.3 95.5 169.5 84.7 169.5 71.5 169.5 58.3 180.3 47.5 193.5 47.5 206.7 47.5 217.5 58.3 217.5 71.5 217.5 84.7 206.7 95.5 193.5 95.5Z" fill="#71BCFF"/></g></svg>