<svg width="96" height="96" xmlns="http://www.w3.org/2000/svg" xmlns:xlink="http://www.w3.org/1999/xlink" xml:space="preserve" overflow="hidden"><g transform="translate(-413 -43)"><path d="M498.5 118.6 486 106.1C484.3 104.4 482 103.8 479.8 104.2L475.4 99.8C479.3 94.8 481.6 88.4 481.6 81.6 481.6 65.1 468.1 51.6 451.6 51.6 435.1 51.6 421.6 65.1 421.6 81.6 421.6 98.1 435.1 111.6 451.6 111.6 458.4 111.6 464.7 109.3 469.8 105.4L474.2 109.8C473.8 112 474.4 114.3 476.1 116L488.6 128.5C490 129.9 491.8 130.6 493.6 130.6 495.4 130.6 497.2 129.9 498.6 128.5 501.2 125.7 501.2 121.3 498.5 118.6ZM451.5 105.5C438.3 105.5 427.5 94.7 427.5 81.5 427.5 68.3 438.3 57.5 451.5 57.5 464.7 57.5 475.5 68.3 475.5 81.5 475.5 94.7 464.7 105.5 451.5 105.5Z" stroke="#FFFFFF" fill="#FFFFFF"/></g></svg>