<svg width="96" height="96" xmlns="http://www.w3.org/2000/svg" xmlns:xlink="http://www.w3.org/1999/xlink" xml:space="preserve" overflow="hidden"><g transform="translate(-413 -139)"><path d="M461 183C456 183 452 179 452 174 452 169 456 165 461 165 466 165 470 169 470 174 470 179 466 183 461 183ZM461 153C454.1 153 447.6 156.4 443.7 162.2 439.8 167.9 439 175.2 441.5 181.7L451 202.7 459.2 219.9C459.5 220.6 460.2 221 461 221 461.8 221 462.5 220.6 462.8 219.9L471 202.7 480.5 181.7C483 175.2 482.2 167.9 478.3 162.2 474.4 156.4 467.9 153 461 153Z" stroke="#FFFFFF" fill="#FFFFFF"/></g></svg>