<svg width="96" height="96" xmlns="http://www.w3.org/2000/svg" xmlns:xlink="http://www.w3.org/1999/xlink" xml:space="preserve" overflow="hidden"><g transform="translate(-413 -331)"><path d="M436 351 447 351 447 357 475 357 475 351 486 351 486 413 436 413 436 351ZM461.1 343C462.7 343 464 344.4 464 346 464 347.7 462.7 349 461 349 459.3 349 458 347.7 458 346 458 344.3 459.3 343 461.1 343ZM430 349 430 415C430 417.2 431.8 419 434 419L488 419C490.2 419 492 417.2 492 415L492 349C492 346.8 490.2 345 488 345L471 345 471 343C471 340.8 469.2 339 467 339L455 339C452.8 339 451 340.8 451 343L451 345 434 345C431.8 345 430 346.8 430 349Z" stroke="#FFFFFF" fill="#FFFFFF"/><path d="M470.9 391 467.9 393.9 470.1 396.1 473 393.1 475.9 396.1 478.1 393.9 475.1 391 478.1 388.1 475.9 385.9 473 388.9 470.1 385.9 467.9 388.1Z" stroke="#FFFFFF" fill="#FFFFFF"/><path d="M467.9 400.1 470.9 403 467.9 405.9 470.1 408.1 473 405.1 475.9 408.1 478.1 405.9 475.1 403 478.1 400.1 475.9 397.9 473 400.9 470.1 397.9Z" stroke="#FFFFFF" fill="#FFFFFF"/><path d="M442 389 459 389 459 393 442 393Z" stroke="#FFFFFF" fill="#FFFFFF"/><path d="M442 401 459 401 459 405 442 405Z" stroke="#FFFFFF" fill="#FFFFFF"/><path d="M442 365 459 365 459 369 442 369Z" stroke="#FFFFFF" fill="#FFFFFF"/><path d="M442 377 459 377 459 381 442 381Z" stroke="#FFFFFF" fill="#FFFFFF"/><path d="M465.9 366.8 468 364.7 470.6 367.3 477.2 360.7 479.3 362.8 470.6 371.5Z" stroke="#FFFFFF" fill="#FFFFFF"/><path d="M465.9 378.8 468 376.7 470.6 379.3 477.2 372.7 479.3 374.8 470.6 383.5Z" stroke="#FFFFFF" fill="#FFFFFF"/></g></svg>